<mxfile host="app.diagrams.net" modified="2024-04-03T21:25:20.851Z" agent="Mozilla/5.0 (Windows NT 10.0; Win64; x64) AppleWebKit/537.36 (KHTML, like Gecko) Chrome/123.0.0.0 Safari/537.36" etag="lm_x2Wb7wfuyathhAY6r" version="24.2.2" type="device">
  <diagram name="PÃ¡gina-1" id="T46qjY38iXH6E6MwGVTZ">
    <mxGraphModel dx="2049" dy="1103" grid="1" gridSize="10" guides="1" tooltips="1" connect="1" arrows="1" fold="1" page="1" pageScale="1" pageWidth="827" pageHeight="1169" math="0" shadow="0">
      <root>
        <mxCell id="0" />
        <mxCell id="1" parent="0" />
        <mxCell id="TWGzef0I_DzTDx77W-4H-2" value="&lt;div&gt;ALUMNO&lt;/div&gt;&lt;div&gt;&lt;br&gt;&lt;/div&gt;&lt;div&gt;&lt;br&gt;&lt;/div&gt;&lt;div&gt;String - Nombre&lt;/div&gt;&lt;div&gt;String - Apellido&lt;/div&gt;&lt;div&gt;Int - Legajo&lt;/div&gt;&lt;div&gt;Lista - materiasAprobadas&lt;/div&gt;&lt;div&gt;&lt;br&gt;&lt;/div&gt;&lt;div&gt;&lt;br&gt;&lt;/div&gt;&lt;div&gt;&lt;br&gt;&lt;/div&gt;&lt;div&gt;&lt;br&gt;&lt;/div&gt;&lt;div&gt;&lt;br&gt;&lt;/div&gt;&lt;div&gt;&lt;br&gt;&lt;/div&gt;&lt;div&gt;&lt;br&gt;&lt;/div&gt;" style="whiteSpace=wrap;html=1;aspect=fixed;" vertex="1" parent="1">
          <mxGeometry x="50" y="70" width="240" height="240" as="geometry" />
        </mxCell>
        <mxCell id="TWGzef0I_DzTDx77W-4H-3" value="" style="endArrow=none;html=1;rounded=0;" edge="1" parent="1" target="TWGzef0I_DzTDx77W-4H-2">
          <mxGeometry width="50" height="50" relative="1" as="geometry">
            <mxPoint x="50" y="120" as="sourcePoint" />
            <mxPoint x="270" y="130" as="targetPoint" />
          </mxGeometry>
        </mxCell>
        <mxCell id="TWGzef0I_DzTDx77W-4H-4" value="" style="endArrow=none;html=1;rounded=0;entryX=1.016;entryY=0.208;entryDx=0;entryDy=0;entryPerimeter=0;" edge="1" parent="1" target="TWGzef0I_DzTDx77W-4H-2">
          <mxGeometry width="50" height="50" relative="1" as="geometry">
            <mxPoint x="50" y="120" as="sourcePoint" />
            <mxPoint x="210" y="120" as="targetPoint" />
          </mxGeometry>
        </mxCell>
        <mxCell id="TWGzef0I_DzTDx77W-4H-5" value="&lt;div&gt;MATERIA&lt;/div&gt;&lt;div&gt;&lt;br&gt;&lt;/div&gt;&lt;div&gt;&lt;br&gt;&lt;/div&gt;&lt;div&gt;String - Nombre&lt;/div&gt;&lt;div&gt;codigo - int&lt;/div&gt;&lt;div&gt;Lista - materiasCorrelativas&lt;/div&gt;&lt;div&gt;&lt;br&gt;&lt;/div&gt;&lt;div&gt;&lt;br&gt;&lt;/div&gt;&lt;div&gt;&lt;br&gt;&lt;/div&gt;&lt;div&gt;&lt;br&gt;&lt;/div&gt;&lt;div&gt;&lt;br&gt;&lt;/div&gt;&lt;div&gt;&lt;br&gt;&lt;/div&gt;&lt;div&gt;&lt;br&gt;&lt;/div&gt;" style="whiteSpace=wrap;html=1;aspect=fixed;" vertex="1" parent="1">
          <mxGeometry x="520" y="70" width="240" height="240" as="geometry" />
        </mxCell>
        <mxCell id="TWGzef0I_DzTDx77W-4H-6" value="&lt;div&gt;INSCRIPCION&lt;/div&gt;&lt;div&gt;&lt;br&gt;&lt;/div&gt;&lt;div&gt;&lt;br&gt;&lt;/div&gt;&lt;div&gt;&lt;br&gt;&lt;/div&gt;&lt;div&gt;&lt;br&gt;&lt;/div&gt;&lt;div&gt;&lt;br&gt;&lt;/div&gt;&lt;div&gt;&lt;br&gt;&lt;/div&gt;&lt;div style=&quot;font-size: 11px;&quot;&gt;&lt;div data-darkreader-inline-color=&quot;&quot; data-darkreader-inline-bgcolor=&quot;&quot; style=&quot;background-color: rgb(30, 31, 34); color: rgb(188, 190, 196); --darkreader-inline-bgcolor: #181a1b; --darkreader-inline-color: #c0bbb3;&quot;&gt;&lt;pre style=&quot;font-family: &amp;quot;JetBrains Mono&amp;quot;, monospace;&quot;&gt;&lt;font style=&quot;font-size: 11px;&quot;&gt;&lt;span data-darkreader-inline-color=&quot;&quot; style=&quot;color: rgb(86, 168, 245); --darkreader-inline-color: #59b0f5;&quot;&gt;Boolean - aprobada&lt;/span&gt;(Alumno, Materia)&lt;/font&gt;&lt;/pre&gt;&lt;/div&gt;&lt;/div&gt;&lt;div style=&quot;font-size: 11px;&quot;&gt;&lt;br&gt;&lt;/div&gt;&lt;div&gt;&lt;br&gt;&lt;/div&gt;&lt;div&gt;&lt;br&gt;&lt;/div&gt;&lt;div&gt;&lt;br&gt;&lt;/div&gt;&lt;div&gt;&lt;br&gt;&lt;/div&gt;&lt;div&gt;&lt;br&gt;&lt;/div&gt;" style="whiteSpace=wrap;html=1;aspect=fixed;" vertex="1" parent="1">
          <mxGeometry x="290" y="420" width="240" height="240" as="geometry" />
        </mxCell>
        <mxCell id="TWGzef0I_DzTDx77W-4H-7" value="" style="endArrow=classic;html=1;rounded=0;entryX=-0.026;entryY=0.458;entryDx=0;entryDy=0;entryPerimeter=0;" edge="1" parent="1" target="TWGzef0I_DzTDx77W-4H-5">
          <mxGeometry width="50" height="50" relative="1" as="geometry">
            <mxPoint x="289" y="180" as="sourcePoint" />
            <mxPoint x="539" y="190" as="targetPoint" />
          </mxGeometry>
        </mxCell>
        <mxCell id="TWGzef0I_DzTDx77W-4H-8" value="" style="endArrow=none;html=1;rounded=0;entryX=1.016;entryY=0.208;entryDx=0;entryDy=0;entryPerimeter=0;" edge="1" parent="1">
          <mxGeometry width="50" height="50" relative="1" as="geometry">
            <mxPoint x="520" y="120" as="sourcePoint" />
            <mxPoint x="764" y="120" as="targetPoint" />
          </mxGeometry>
        </mxCell>
        <mxCell id="TWGzef0I_DzTDx77W-4H-9" value="" style="endArrow=none;html=1;rounded=0;" edge="1" parent="1">
          <mxGeometry width="50" height="50" relative="1" as="geometry">
            <mxPoint x="292" y="470" as="sourcePoint" />
            <mxPoint x="520" y="470" as="targetPoint" />
          </mxGeometry>
        </mxCell>
        <mxCell id="TWGzef0I_DzTDx77W-4H-10" value="" style="endArrow=none;html=1;rounded=0;" edge="1" parent="1">
          <mxGeometry width="50" height="50" relative="1" as="geometry">
            <mxPoint x="292" y="520" as="sourcePoint" />
            <mxPoint x="530" y="520" as="targetPoint" />
          </mxGeometry>
        </mxCell>
        <mxCell id="TWGzef0I_DzTDx77W-4H-11" value="" style="endArrow=none;html=1;rounded=0;exitX=0.5;exitY=0;exitDx=0;exitDy=0;" edge="1" parent="1" source="TWGzef0I_DzTDx77W-4H-6" target="TWGzef0I_DzTDx77W-4H-5">
          <mxGeometry width="50" height="50" relative="1" as="geometry">
            <mxPoint x="414" y="410" as="sourcePoint" />
            <mxPoint x="474" y="170" as="targetPoint" />
          </mxGeometry>
        </mxCell>
        <mxCell id="TWGzef0I_DzTDx77W-4H-12" value="" style="endArrow=none;html=1;rounded=0;entryX=1;entryY=1;entryDx=0;entryDy=0;exitX=0.463;exitY=0.005;exitDx=0;exitDy=0;exitPerimeter=0;" edge="1" parent="1" source="TWGzef0I_DzTDx77W-4H-6" target="TWGzef0I_DzTDx77W-4H-2">
          <mxGeometry width="50" height="50" relative="1" as="geometry">
            <mxPoint x="400" y="410" as="sourcePoint" />
            <mxPoint x="530" y="320" as="targetPoint" />
          </mxGeometry>
        </mxCell>
      </root>
    </mxGraphModel>
  </diagram>
</mxfile>
